<svg xmlns="http://www.w3.org/2000/svg" xmlns:xlink="http://www.w3.org/1999/xlink" width="50" height="50" viewBox="0 0 50 50">
  <defs>
    <clipPath id="clip-rating">
      <rect width="50" height="50"/>
    </clipPath>
  </defs>
  <g id="rating" clip-path="url(#clip-rating)">
    <path id="star" d="M38.087,14.077a1.653,1.653,0,0,1-.6,1.1l-8.308,8.1,1.969,11.444a3.4,3.4,0,0,1,.023.458,1.35,1.35,0,0,1-.24.813.809.809,0,0,1-.7.332,1.848,1.848,0,0,1-.915-.275l-10.277-5.4L8.766,36.05a1.942,1.942,0,0,1-.915.275.831.831,0,0,1-.72-.332,1.355,1.355,0,0,1-.241-.813,3.742,3.742,0,0,1,.045-.458L8.9,23.278l-8.332-8.1A1.744,1.744,0,0,1,0,14.077q0-.846,1.282-1.053l11.491-1.671L17.922.938Q18.357,0,19.044,0t1.121.938l5.15,10.415,11.491,1.671q1.282.206,1.282,1.053Z" transform="translate(6.82 6.838)" fill="none" stroke="gray" stroke-width="2.5"/>
  </g>
</svg>
