<svg xmlns="http://www.w3.org/2000/svg" xmlns:xlink="http://www.w3.org/1999/xlink" width="50" height="50" viewBox="0 0 50 50">
  <defs>
    <clipPath id="clip-completed">
      <rect width="50" height="50"/>
    </clipPath>
  </defs>
  <g id="completed" clip-path="url(#clip-completed)">
    <g id="Group_22473" data-name="Group 22473" transform="translate(686.455 -129.424)">
      <path id="Path_12100" data-name="Path 12100" d="M-641.433,152.741v2.405c-.033.289-.066.577-.1.865a20.277,20.277,0,0,1-5.154,11.615,20.123,20.123,0,0,1-11.732,6.521c-.773.137-1.555.214-2.332.32h-2.4c-.686-.086-1.377-.149-2.059-.263a19.977,19.977,0,0,1-11.093-5.632,20.042,20.042,0,0,1-6.049-16.692,19.578,19.578,0,0,1,5.009-11.469,20.089,20.089,0,0,1,14.532-6.962,19.506,19.506,0,0,1,11.317,2.86,20.22,20.22,0,0,1,9.744,14.1C-641.609,151.182-641.538,151.965-641.433,152.741Zm-3.367,1.218a17.189,17.189,0,0,0-17.136-17.171A17.189,17.189,0,0,0-679.1,153.928,17.19,17.19,0,0,0-661.967,171.1,17.19,17.19,0,0,0-644.8,153.96Z" transform="translate(0 0)" fill="gray"/>
      <path id="Path_12101" data-name="Path 12101" d="M-659.077,166.75a2.037,2.037,0,0,1,.252-.415q5.814-5.828,11.635-11.648a1.861,1.861,0,0,1,1.4-.669,1.591,1.591,0,0,1,1.5.96,1.6,1.6,0,0,1-.216,1.766,4.442,4.442,0,0,1-.355.38l-12.887,12.89a1.75,1.75,0,0,1-2.866-.013q-3.173-3.172-6.346-6.343a1.8,1.8,0,0,1-.631-1.529,1.6,1.6,0,0,1,1.021-1.371,1.581,1.581,0,0,1,1.66.222,4.052,4.052,0,0,1,.413.379q2.494,2.491,4.984,4.987a3.72,3.72,0,0,1,.272.346Z" transform="translate(-6.077 -8.43)" fill="gray"/>
    </g>
  </g>
</svg>
