<svg xmlns="http://www.w3.org/2000/svg" xmlns:xlink="http://www.w3.org/1999/xlink" width="50" height="50" viewBox="0 0 50 50">
  <defs>
    <clipPath id="clip-Points">
      <rect width="50" height="50"/>
    </clipPath>
  </defs>
  <g id="Points" clip-path="url(#clip-Points)">
    <g id="Group_22472" data-name="Group 22472" transform="translate(413.793 -517.638)">
      <path id="Path_12098" data-name="Path 12098" d="M-367.312,537.838a9.779,9.779,0,0,1-.447,1.107c-1.724,3.149-3.465,6.289-5.19,9.438a2.654,2.654,0,0,0-.31.9q-.751,5.737-1.473,11.477c-.214,1.683-1.071,2.271-2.737,1.9q-5.274-1.187-10.553-2.352a2.594,2.594,0,0,0-1.071.005c-3.58.779-7.156,1.583-10.734,2.375a1.9,1.9,0,0,1-2.612-1.86c-.463-3.789-.914-7.578-1.39-11.365a3.1,3.1,0,0,0-.351-1.083c-1.734-3.144-3.489-6.276-5.235-9.414a1.9,1.9,0,0,1,.909-2.956q4.964-2.575,9.92-5.164a3.911,3.911,0,0,0,.96-.722q3.753-3.823,7.483-7.671a1.89,1.89,0,0,1,3.087-.027q3.793,3.869,7.59,7.737a3.6,3.6,0,0,0,.868.644q5,2.636,10.014,5.242A2.128,2.128,0,0,1-367.312,537.838Zm-4.4.714c-1.726-.906-3.333-1.866-5.033-2.616a23.247,23.247,0,0,1-8.211-6.105c-1.129-1.291-2.471-2.393-3.822-3.682a3.394,3.394,0,0,1-.348.479c-2.046,2.115-4.09,4.232-6.159,6.326a5.467,5.467,0,0,1-1.305.97c-2.434,1.291-4.886,2.548-7.33,3.818-.5.259-.993.526-1.524.807.114.221.2.4.3.572,1.47,2.641,2.947,5.278,4.4,7.926a3.547,3.547,0,0,1,.437,1.186c.282,2.092.517,4.19.773,6.286.169,1.386.348,2.771.527,4.2.226-.034.406-.051.579-.09,3.085-.681,6.167-1.373,9.254-2.036a2.941,2.941,0,0,1,1.194-.006c2.2.463,4.39.964,6.584,1.449,1.06.234,2.12.462,3.161.689a.827.827,0,0,0,.09-.177c.375-2.919.772-5.836,1.11-8.759a8.115,8.115,0,0,1,1.137-3.673c.555-.845,1-1.766,1.485-2.654C-373.521,541.848-372.633,540.233-371.708,538.552Z" transform="translate(0 0)" fill="gray" stroke="#fff" stroke-width="0.8"/>
      <path id="Path_12099" data-name="Path 12099" d="M-388.229,550.185c0,1.209,0,2.323,0,3.437,0,.284.013.57-.009.853a1.855,1.855,0,0,1-1.868,1.787,1.8,1.8,0,0,1-1.768-1.869q-.015-6.918,0-13.836a1.7,1.7,0,0,1,1.543-1.815,33.673,33.673,0,0,1,5.157.1A5.627,5.627,0,0,1-380.415,545a5.761,5.761,0,0,1-5.526,5.184C-386.667,550.208-387.4,550.185-388.229,550.185Zm.034-3.653c.752,0,1.438.025,2.121-.006a2.107,2.107,0,0,0,2.016-1.842,2,2,0,0,0-1.629-2.228,15.892,15.892,0,0,0-2.508-.026Z" transform="translate(-2.452 -2.335)" fill="gray" stroke="#fff" stroke-width="0.8"/>
    </g>
  </g>
</svg>
