<svg xmlns="http://www.w3.org/2000/svg" xmlns:xlink="http://www.w3.org/1999/xlink" width="50" height="50" viewBox="0 0 50 50">
  <defs>
    <clipPath id="clip-dashboard">
      <rect width="50" height="50"/>
    </clipPath>
  </defs>
  <g id="dashboard" clip-path="url(#clip-dashboard)">
    <g id="dashboard-outline-badged" transform="translate(-0.494 2)">
      <path id="Path_13310" data-name="Path 13310" d="M16.209,21.272A4.216,4.216,0,1,0,23,22.466L31.316,14.3,29.334,12.32l-8.305,8.165A4.216,4.216,0,0,0,16.209,21.272Z" transform="translate(5.46 4.588)" fill="#454545"/>
      <path id="Path_13311" data-name="Path 13311" d="M45.179,16.545a10.47,10.47,0,0,1-2.895.618A20.236,20.236,0,0,1,45,26.2H40.036V29.01H45a20.278,20.278,0,0,1-4.37,11.018H8.754A20.278,20.278,0,0,1,4.383,29.01H9.232V26.2H4.383A20.25,20.25,0,0,1,9.232,14.142l3.443,3.443L14.656,15.6l-3.415-3.457A20.25,20.25,0,0,1,23.285,7.116v4.919H26.1V7.13a20.25,20.25,0,0,1,5.031.984,10.567,10.567,0,0,1-.112-1.405,10.568,10.568,0,0,1,.126-1.532A23.173,23.173,0,0,0,6.983,42.4l.422.492H41.975L42.4,42.4a23.117,23.117,0,0,0,2.811-25.8Z" transform="translate(0 1.318)" fill="#454545"/>
      <path id="Path_13312" data-name="Path 13312" d="M39.053,8.027A7.027,7.027,0,1,1,32.027,1,7.027,7.027,0,0,1,39.053,8.027Z" transform="translate(9.527)" fill="#454545"/>
    </g>
  </g>
</svg>
