<svg xmlns="http://www.w3.org/2000/svg" xmlns:xlink="http://www.w3.org/1999/xlink" width="50" height="50" viewBox="0 0 50 50">
  <defs>
    <clipPath id="clip-widges">
      <rect width="50" height="50"/>
    </clipPath>
  </defs>
  <g id="widges" clip-path="url(#clip-widges)">
    <path id="Path_13306" data-name="Path 13306" d="M129.43,12.319a1.435,1.435,0,0,0-.09.263,2.411,2.411,0,0,1-.762,1.375q-4.808,4.819-9.621,9.634a3.225,3.225,0,0,1-.882.627,2.068,2.068,0,0,1-2.449-.487c-.959-.911-1.878-1.865-2.812-2.8q-3.356-3.374-6.709-6.752a2.926,2.926,0,0,1-.919-1.347,2.189,2.189,0,0,1,.364-1.905,7.007,7.007,0,0,1,.642-.721q4.676-4.682,9.355-9.361A2.2,2.2,0,0,1,116.925.1c.031,0,.056-.065.084-.1h.56c.053.035.1.09.161.1A2.344,2.344,0,0,1,119,.838c.931.94,1.879,1.863,2.813,2.8q3.428,3.445,6.85,6.9a2.211,2.211,0,0,1,.666,1.283.7.7,0,0,0,.1.2v.305" transform="translate(-82.112 2)" fill="#454545"/>
    <path id="Path_13307" data-name="Path 13307" d="M10.092,124.442H17.6a2.527,2.527,0,0,1,2.561,2.567q0,7.507,0,15.014a2.509,2.509,0,0,1-2.139,2.522,4.161,4.161,0,0,1-.657.053q-7.151,0-14.3,0a3.524,3.524,0,0,1-1.75-.35A2.394,2.394,0,0,1,.06,142.352a7.5,7.5,0,0,1-.054-.964q0-7.062,0-14.123a2.661,2.661,0,0,1,.977-2.271,2.491,2.491,0,0,1,1.526-.55q3.792-.006,7.584,0m7.677,2.462H2.459v15.238h15.31Z" transform="translate(1.998 -96.99)" fill="#454545"/>
    <path id="Path_13308" data-name="Path 13308" d="M10.128,10.555c2.358,0,4.717,0,7.075,0a3.16,3.16,0,0,1,1.562.262A2.46,2.46,0,0,1,20.156,13.1q.013,7.444,0,14.888a2.483,2.483,0,0,1-2.612,2.679c-1.875.027-3.75.012-5.624.012q-4.428,0-8.857-.007a3.616,3.616,0,0,1-1.477-.189A2.435,2.435,0,0,1,.057,28.434,7.438,7.438,0,0,1,0,27.521q0-7.113,0-14.227a2.613,2.613,0,0,1,1.187-2.343,3.039,3.039,0,0,1,1.732-.4h7.2m7.655,2.4H2.464V28.292h.217l11.679-.011c.992,0,1.984,0,2.977.009.519.005.445.037.445-.441q0-7.086,0-14.172v-.723" transform="translate(2 -6.396)" fill="#454545"/>
    <path id="Path_13309" data-name="Path 13309" d="M115.327,134.484c0-2.485.024-4.971-.008-7.456a2.55,2.55,0,0,1,2.639-2.632c4.97.024,9.941.01,14.912.01a2.473,2.473,0,0,1,2.531,2.26,6.861,6.861,0,0,1,.036.737q0,7.112,0,14.225a3.062,3.062,0,0,1-.357,1.691,2.561,2.561,0,0,1-2.31,1.24q-7.112.017-14.225,0c-.322,0-.644-.017-.964-.046a2.454,2.454,0,0,1-2.254-2.474q0-3.779,0-7.557m17.722,7.628V126.858c-.078,0-.137-.008-.2-.008q-7.455,0-14.91-.006c-.237,0-.251.1-.251.287q.009,7.353.009,14.706v.274Z" transform="translate(-89.733 -96.954)" fill="#454545"/>
    <path id="plus" d="M14.081,8.492H10.089V4.5h-1.6V8.492H4.5v1.6H8.492v3.992h1.6V10.089h3.992Z" transform="translate(26 5)" fill="#fff" stroke="#fff" stroke-width="0.5"/>
  </g>
</svg>
