<svg xmlns="http://www.w3.org/2000/svg" xmlns:xlink="http://www.w3.org/1999/xlink" width="50" height="50" viewBox="0 0 50 50">
  <defs>
    <clipPath id="clip-switch_dashboard">
      <rect width="50" height="50"/>
    </clipPath>
  </defs>
  <g id="switch_dashboard" data-name="switch dashboard" clip-path="url(#clip-switch_dashboard)">
    <g id="_7f56a5f7df1ce514936b6ae80a3f873d" data-name="7f56a5f7df1ce514936b6ae80a3f873d" transform="translate(-8 -20)">
      <path id="Path_13304" data-name="Path 13304" d="M346.1,824.1" transform="translate(-320.21 -764.18)" fill="#454545"/>
      <path id="Path_13305" data-name="Path 13305" d="M54.374,52.318a1.963,1.963,0,0,1-1.957-1.967l.052-11.545a3.819,3.819,0,0,0-3.862-3.862H19.654l6.775,6.146-2.766,2.785L11.929,33.015,22.15,22l2.728,2.728-5.843,6.359H48.611a7.422,7.422,0,0,1,7.72,7.46v11.8A1.96,1.96,0,0,1,54.374,52.318ZM13.862,40.736V52.318a3.864,3.864,0,0,0,3.862,3.862H47.807l-6.354-6.359,2.728-2.728,9.654,9.654L44.181,67.2l-2.728-2.728,4.5-4.425H17.725A7.725,7.725,0,0,1,10,52.318V40.74a1.931,1.931,0,0,1,3.862,0Z" fill="#454545"/>
    </g>
  </g>
</svg>
