<svg xmlns="http://www.w3.org/2000/svg" xmlns:xlink="http://www.w3.org/1999/xlink" width="50" height="50" viewBox="0 0 50 50">
  <defs>
    <clipPath id="clip-switchrole">
      <rect width="50" height="50"/>
    </clipPath>
  </defs>
  <g id="switchrole" clip-path="url(#clip-switchrole)">
    <path id="switch-roles" d="M53.977,67.758H27.309v-3.03H48.219L46.7,62.3l2.424-1.818,4.849,7.273Zm-23.031,9.7,2.727-1.212-1.212-2.424H53.977v-3.03H27.613ZM28.825,58.667A19.477,19.477,0,0,0,9.43,76.546H6.4a22.19,22.19,0,0,1,15.455-19.7,14.06,14.06,0,0,1-6.364-11.515,13.334,13.334,0,0,1,26.667,0,13.63,13.63,0,0,1-6.667,11.515,15.382,15.382,0,0,1,5.455,2.727L38.825,61.7a17.759,17.759,0,0,0-10-3.03Zm0-2.727a10.218,10.218,0,0,0,10.3-10.3,10.478,10.478,0,0,0-10.3-10.606,10.218,10.218,0,0,0-10.3,10.3,10.478,10.478,0,0,0,10.3,10.606Z" transform="translate(-5.4 -30)" fill="#454545"/>
  </g>
</svg>
