<svg xmlns="http://www.w3.org/2000/svg" xmlns:xlink="http://www.w3.org/1999/xlink" width="15" height="15" viewBox="0 0 15 15">
  <defs>
    <clipPath id="clip-path">
      <rect id="Rectangle_7080" data-name="Rectangle 7080" width="14.559" height="10.442" transform="translate(0 0)" fill="#25467a"/>
    </clipPath>
    <clipPath id="clip-classroom_2">
      <rect width="15" height="15"/>
    </clipPath>
  </defs>
  <g id="classroom_2" data-name="classroom – 2" clip-path="url(#clip-classroom_2)">
    <g id="Group_26125" data-name="Group 26125" transform="translate(-0.001 2)">
      <g id="Group_26124" data-name="Group 26124" transform="translate(0 0)" clip-path="url(#clip-path)">
        <path id="Path_94868" data-name="Path 94868" d="M29.067,0c0,.052.01.1.01.156q0,3.549,0,7.1v.167H21.189c.293-.217.556-.416.827-.606.04-.028.111-.017.167-.017H28.43V.635h-.171q-3.854,0-7.709,0c-.145,0-.183.039-.182.183.005,1.248,0,2.5.005,3.745a.272.272,0,0,1-.127.26c-.167.111-.325.237-.518.38V0Z" transform="translate(-14.518 0)" fill="#25467a"/>
        <path id="Path_94869" data-name="Path 94869" d="M4.04,18.087H0v-.171c0-.428.007-.857,0-1.285a1.853,1.853,0,0,1,.873-1.637,2.4,2.4,0,0,1,1.371-.42q.775-.008,1.551,0a.482.482,0,0,0,.313-.106Q5.8,13.209,7.488,11.954a.274.274,0,0,1,.076-.054c.214-.058.221-.217.214-.4-.011-.281,0-.564,0-.846,0-.167.083-.264.219-.267s.23.1.231.272c0,.345,0,.689,0,1.034a.244.244,0,0,0,.091.171.68.68,0,0,1,.032,1.147Q6.32,14.531,4.279,16.037a.49.49,0,0,0-.246.468c.022.464.006.929.006,1.394v.188" transform="translate(0 -7.645)" fill="#25467a"/>
        <path id="Path_94870" data-name="Path 94870" d="M3.372,14.559a1.807,1.807,0,1,1,1.842-1.768,1.81,1.81,0,0,1-1.842,1.768" transform="translate(-1.176 -8.054)" fill="#25467a"/>
      </g>
    </g>
  </g>
</svg>
